<?xml version="1.0" encoding="UTF-8"?>
<svg xmlns="http://www.w3.org/2000/svg" viewBox="0 0 1700 1300">
  <defs>
    <style>
      .cls-1, .cls-2, .cls-3 {
        stroke-width: 0px;
      }

      .cls-1, .cls-4 {
        fill: #bb247a;
      }

      .cls-2 {
        fill: #292359;
      }

      .cls-3 {
        fill: #fff;
      }

      .cls-5 {
        font-family: Merriweather-Bold, 'Merriweather Bold';
        font-weight: 700;
      }

      .cls-5, .cls-4 {
        font-size: 168.5px;
      }

      .cls-4 {
        font-family: Merriweather-Black, 'Merriweather Black';
        font-weight: 800;
      }
    </style>
  </defs>
  <g id="BACKGROUND">
    <rect class="cls-3" width="2000" height="2000"/>
  </g>
  <g id="OBJECTS">
    <g>
      <g>
        <text class="cls-5" transform="translate(1032.12 971.03)"><tspan x="0" y="0">Makeup</tspan></text>
        <text class="cls-4" transform="translate(1032.1 1190.86)"><tspan x="0" y="0">ARTIST </tspan></text>
      </g>
      <g>
        <circle class="cls-1" cx="574.6" cy="989.4" r="299.99" transform="translate(-531.31 696.09) rotate(-45)"/>
        <path class="cls-3" d="m564.33,1151.47c-.55,7.91-1.11,15.27-1.26,27.3.24-9.18.63-18.36,1.26-27.3Z"/>
        <path class="cls-3" d="m642.59,892.98c-10.3-3.75-20.83-6.68-31.59-8.78-4.03.79-34.43,11.79-34.43,11.79-12.95.47-3.95-7.91-3.95-7.91,11.85-6.66,24.03-12.62,36.56-17.88,6.71-1.5,39.48,7.91,37.67,9.97-1.86,4.15-3.36,8.42-4.5,12.82h.24Zm-23.69,54.91c-3.52-.16-7-.61-10.44-1.36-3.44-.75-6.79-1.78-10.06-3.09-3.27-1.31-6.4-2.89-9.4-4.73-3-1.84-5.83-3.92-8.48-6.25l19.43-4.59s13.98,11,23.69,10.44c8.14-1.23,15.8-3.87,22.98-7.91-.58,1.33-1.26,2.62-2.03,3.85-.77,1.23-1.63,2.4-2.58,3.5-.95,1.1-1.97,2.13-3.07,3.08-1.1.95-2.26,1.81-3.49,2.59s-2.51,1.45-3.84,2.04c-1.33.58-2.7,1.06-4.1,1.44-1.4.38-2.82.65-4.27.82-1.44.17-2.89.22-4.34.17Zm49.35-14.4c-5.29-17.57-15.79-38.61-9.95-73.03,2.37-14.88-15.79-54.28-35.06-87.67-16.62,11.74-34.52,21-53.7,27.77-48.72,17.64-36.4,113.94-99.65,125.89-13.35,2.45-23.69-5.38-33.88,1.35-13.19,8.86-18.64,48.5-5.29,63.3,3.22,3.21,6.79,5.97,10.71,8.27,3.92,2.3,8.06,4.08,12.43,5.34,1.13.37,2.23.82,3.29,1.37s2.06,1.17,3.02,1.88,1.85,1.49,2.67,2.35c.83.86,1.58,1.78,2.26,2.76.68.98,1.27,2.01,1.78,3.09.51,1.08.93,2.19,1.25,3.34s.56,2.31.7,3.5c.14,1.18.18,2.37.12,3.56,0,6.25.71,18.12,1.82,33.71,1.18,17.01,2.29,38.37,1.74,61.72-.03,19.9-1.97,39.6-5.84,59.12-3.87,19.52-9.58,38.47-17.14,56.87,9.51,4.8,19.26,9.03,29.25,12.7,9.99,3.67,20.16,6.75,30.51,9.25,10.35,2.5,20.81,4.39,31.37,5.68,10.57,1.29,21.17,1.97,31.81,2.04-7.67-28.71-10.81-57.9-9.4-87.59-35.77-10.6-62.7-48.74-62.7-48.74,0,0,14.13,11.31,64.36,13.61v3.48-3.48c41.62,3.01,90.81-1.11,107.39-11.63,18.79-11.87,5.76-36.63,4.9-50.64-.87-14,7.9-11.31,11.29-12.26-8.03-1.58-15.77-4.08-23.22-7.49-7.45-3.41-14.39-7.64-20.85-12.69,22.66-13.85,25.19-19.54,45.01-20.33-.67-1.47-1.54-2.82-2.61-4.04-2.74-3.76-4.98-7.8-6.75-12.11-1.76-4.31-2.99-8.76-3.68-13.37,0-6.96,24.87-2.53,29.85-18.44,4.97-15.9-31.35-26.9-37.82-48.42Z"/>
        <path class="cls-2" d="m574.68,709.88c-9.9,0-19.77.53-29.61,1.58-3.88.42-7.76.92-11.62,1.5-3.86.58-7.71,1.24-11.55,1.99-3.84.74-7.65,1.57-11.45,2.47-3.8.9-7.58,1.89-11.34,2.95-3.76,1.06-7.5,2.21-11.21,3.43-3.71,1.22-7.4,2.52-11.05,3.9-3.66,1.38-7.28,2.83-10.88,4.36-3.6,1.53-7.16,3.13-10.69,4.81-3.53,1.68-7.02,3.43-10.47,5.26-3.45,1.83-6.87,3.73-10.24,5.7-3.37,1.97-6.71,4.01-10,6.13-3.29,2.11-6.53,4.29-9.73,6.54-3.2,2.25-6.35,4.56-9.45,6.95-3.1,2.38-6.15,4.83-9.15,7.34-3,2.51-5.94,5.08-8.83,7.72-2.89,2.63-5.72,5.33-8.5,8.08-2.78,2.75-5.49,5.57-8.15,8.43-2.66,2.87-5.25,5.79-7.79,8.77-2.54,2.98-5.01,6.01-7.41,9.09-2.41,3.08-4.75,6.21-7.03,9.4-2.28,3.18-4.48,6.41-6.63,9.68-2.14,3.27-4.21,6.59-6.21,9.95-2,3.36-3.93,6.76-5.79,10.21-1.86,3.44-3.64,6.92-5.35,10.44-1.71,3.52-3.35,7.07-4.91,10.66-1.56,3.59-3.05,7.21-4.46,10.86-1.41,3.65-2.74,7.33-4,11.04-1.26,3.71-2.43,7.44-3.53,11.19s-2.12,7.53-3.06,11.33c-.94,3.8-1.8,7.62-2.58,11.45-.78,3.84-1.48,7.69-2.1,11.55-.62,3.86-1.16,7.74-1.61,11.63-1.29,10.83-1.97,21.69-2.05,32.6,0,6.42.24,12.83.68,19.23.45,6.4,1.12,12.78,2,19.14.89,6.36,1.99,12.68,3.32,18.96,1.32,6.28,2.86,12.51,4.61,18.68,1.75,6.17,3.71,12.28,5.88,18.32,2.17,6.04,4.55,12,7.13,17.87s5.36,11.65,8.34,17.34c2.98,5.68,6.15,11.26,9.51,16.72,3.36,5.46,6.91,10.81,10.64,16.02,3.73,5.22,7.63,10.3,11.71,15.25,4.08,4.95,8.32,9.75,12.73,14.41,4.41,4.66,8.97,9.15,13.69,13.49,4.72,4.34,9.58,8.51,14.59,12.52,5.01,4,10.14,7.83,15.41,11.48,5.27,3.65,10.66,7.11,16.17,10.39,5.51,3.28,11.12,6.36,16.84,9.25,7.56-18.4,13.27-37.36,17.14-56.87,3.87-19.52,5.81-39.22,5.84-59.12.55-23.74-.55-44.7-1.74-61.72-1.11-15.82-2.13-27.46-1.82-33.71.06-1.19.02-2.38-.12-3.56-.14-1.18-.37-2.35-.7-3.5s-.75-2.26-1.25-3.34c-.51-1.08-1.1-2.11-1.78-3.09-.68-.98-1.43-1.9-2.26-2.76-.83-.86-1.72-1.64-2.67-2.35s-1.96-1.34-3.02-1.88-2.15-1-3.29-1.37c-4.37-1.26-8.52-3.05-12.44-5.37-3.92-2.32-7.49-5.09-10.7-8.32-13.35-14.64-7.9-54.28,5.29-63.3,9.95-6.73,20.53,1.11,33.88-1.35,63.17-11.95,50.93-108.24,99.65-125.89,19.18-6.78,37.08-16.03,53.7-27.77,8.89-6.27,17.02-13.41,24.39-21.41,7.37-8,13.83-16.69,19.36-26.07-14.84-5.15-30.01-9.02-45.51-11.6-15.5-2.58-31.1-3.83-46.81-3.75Z"/>
        <path class="cls-2" d="m599.95,927.87l-19.43,4.59c2.65,2.32,5.48,4.4,8.48,6.25,3,1.84,6.14,3.42,9.4,4.73,3.27,1.31,6.62,2.34,10.06,3.09,3.44.75,6.92,1.2,10.44,1.36,1.45.07,2.9.03,4.35-.12,1.45-.15,2.87-.4,4.28-.76s2.78-.83,4.12-1.39c1.34-.57,2.63-1.23,3.87-1.99,1.24-.76,2.42-1.61,3.53-2.55,1.11-.94,2.15-1.95,3.11-3.05.96-1.09,1.84-2.25,2.62-3.48.79-1.22,1.48-2.5,2.08-3.83-7.18,4.05-14.84,6.68-22.98,7.91-9.71.24-23.93-10.76-23.93-10.76Z"/>
        <path class="cls-2" d="m576.02,895.98s30.4-11,34.43-11.79c10.76,2.1,21.29,5.03,31.59,8.78,1.13-4.45,2.63-8.78,4.5-12.98,1.42-1.98-30.95-11.47-37.67-9.97-12.72,5.27-25.09,11.26-37.11,17.96,0,0-8.69,8.47,4.26,7.99Z"/>
        <path class="cls-2" d="m688.39,1070.29c5.53-1.9,7.9-14.72-2.53-21.84.62-.57,1.2-1.19,1.72-1.86.52-.67.98-1.38,1.39-2.12.4-.75.74-1.52,1.02-2.32.27-.8.48-1.62.62-2.46.14-.84.21-1.68.21-2.53,0-.85-.07-1.69-.21-2.53-.14-.84-.35-1.66-.63-2.46-.28-.8-.62-1.57-1.03-2.32-20.22.79-22.35,6.49-44.93,20.26,6.5,5.07,13.5,9.31,21,12.72,7.5,3.41,15.29,5.89,23.38,7.45Z"/>
        <path class="cls-1" d="m564.49,1148.31v3.17c-.16-1.03-.08-2.14,0-3.17Z"/>
        <path class="cls-1" d="m500.37,1131.3s26.69,38.22,62.7,48.9v-1.42c0-12.03.71-19.62,1.26-27.3v-6.65c-49.91-2.29-63.96-13.53-63.96-13.53Z"/>
      </g>
    </g>
  </g>
</svg>