<svg width="1586" height="870" viewBox="0 0 1586 870" fill="none" xmlns="http://www.w3.org/2000/svg">
<g id="OBJECTS">
<g id="Group">
<g id="Group_2">
<path id="Makeup" d="M900.873 296.798L882.675 294.607V284.16H935.247L955.298 356.615L960.016 376.33L964.06 356.615L983.943 284.16H1036.01V294.607L1017.64 296.798L1031.12 397.392L1044.77 399.246V409.356H991.02V399.246L1005.85 397.561L998.434 323.758L995.233 292.922L988.998 318.871L964.566 404.132H946.705L921.767 323.252L913.173 292.922L910.646 323.758L904.243 397.561L921.261 399.246V409.356H874.418V399.246L888.572 397.561L900.873 296.798ZM1050.94 383.07C1050.94 372.847 1056.05 365.153 1066.27 359.985C1076.61 354.818 1089.92 352.178 1106.21 352.066V348.19C1106.21 343.585 1105.7 339.99 1104.69 337.406C1103.79 334.823 1102.05 332.913 1099.47 331.677C1097 330.329 1093.35 329.655 1088.51 329.655C1083.01 329.655 1078.07 330.385 1073.69 331.846C1069.31 333.194 1064.76 334.991 1060.04 337.238L1054.81 326.454C1056.5 324.993 1059.31 323.252 1063.24 321.23C1067.28 319.208 1072.06 317.467 1077.56 316.007C1083.07 314.434 1088.74 313.648 1094.58 313.648C1103.23 313.648 1109.97 314.771 1114.8 317.018C1119.74 319.264 1123.28 322.859 1125.42 327.802C1127.55 332.744 1128.62 339.372 1128.62 347.685V399.246H1137.72V408.682C1135.47 409.243 1132.27 409.805 1128.11 410.367C1123.96 410.928 1120.31 411.209 1117.16 411.209C1113.34 411.209 1110.76 410.648 1109.41 409.524C1108.17 408.401 1107.56 406.098 1107.56 402.616V398.066C1104.52 401.436 1100.59 404.469 1095.76 407.165C1090.93 409.861 1085.48 411.209 1079.42 411.209C1074.25 411.209 1069.47 410.142 1065.09 408.008C1060.82 405.761 1057.4 402.56 1054.81 398.403C1052.23 394.135 1050.94 389.023 1050.94 383.07ZM1090.2 397.224C1092.56 397.224 1095.25 396.55 1098.29 395.202C1101.32 393.741 1103.96 392 1106.21 389.978V362.344C1096.1 362.344 1088.51 364.085 1083.46 367.568C1078.52 370.938 1076.05 375.319 1076.05 380.711C1076.05 386.103 1077.28 390.203 1079.75 393.011C1082.34 395.82 1085.82 397.224 1090.2 397.224ZM1155.98 286.182L1143.85 283.992V274.893L1174.86 271.186H1175.19L1179.74 274.387V354.425L1179.24 363.355L1213.61 327.296L1201.14 325.443V315.838H1245.12V325.443L1231.47 327.633L1210.75 347.516L1240.23 397.898L1249.5 399.246V409.356H1205.02V399.246L1213.61 397.729L1194.4 362.176L1179.24 377.509L1179.57 386.103V397.729L1190.19 399.246V409.356H1146.21V399.246L1155.98 397.729V286.182ZM1296.66 411.209C1281.84 411.209 1270.77 406.884 1263.47 398.235C1256.28 389.473 1252.69 377.565 1252.69 362.513C1252.69 352.403 1254.54 343.641 1258.25 336.227C1262.07 328.813 1267.4 323.14 1274.25 319.208C1281.11 315.277 1289.03 313.311 1298.01 313.311C1309.25 313.311 1317.9 316.288 1323.96 322.241C1330.03 328.083 1333.17 336.451 1333.4 347.348C1333.4 354.762 1332.95 360.266 1332.05 363.861H1277.29C1277.74 374.083 1280.15 382.059 1284.53 387.788C1288.91 393.404 1295.15 396.213 1303.24 396.213C1307.62 396.213 1312.11 395.483 1316.72 394.022C1321.43 392.562 1325.14 390.821 1327.84 388.799L1332.05 398.066C1329.02 401.324 1324.07 404.357 1317.22 407.165C1310.48 409.861 1303.63 411.209 1296.66 411.209ZM1309.81 353.751C1310.03 350.605 1310.14 348.19 1310.14 346.505C1310.14 331.565 1305.15 324.095 1295.15 324.095C1289.64 324.095 1285.38 326.285 1282.34 330.666C1279.31 335.047 1277.62 342.742 1277.29 353.751H1309.81ZM1422.84 411.041C1419.13 411.041 1416.44 410.254 1414.75 408.682C1413.07 407.109 1412.22 404.75 1412.22 401.605V397.055C1409.19 400.762 1404.92 404.076 1399.42 406.997C1393.91 409.805 1388.41 411.209 1382.9 411.209C1372.12 411.209 1364.43 408.457 1359.82 402.953C1355.21 397.336 1352.91 388.125 1352.91 375.319V327.802L1344.49 325.443V315.838L1373.13 313.648H1373.3L1376.67 316.007V375.319C1376.67 383.519 1377.68 389.248 1379.7 392.506C1381.72 395.763 1385.49 397.392 1390.99 397.392C1397.62 397.392 1403.8 394.809 1409.53 389.641V327.802L1398.24 325.274V315.838L1428.74 313.648H1429.07L1433.12 316.007V398.909H1442.55L1442.38 408.513C1441.94 408.626 1439.86 409.075 1436.15 409.861C1432.44 410.648 1428.01 411.041 1422.84 411.041ZM1547.64 359.48C1547.64 368.916 1545.68 377.565 1541.74 385.429C1537.92 393.292 1532.25 399.583 1524.73 404.301C1517.31 408.906 1508.44 411.209 1498.1 411.209C1495.86 411.209 1493.5 410.985 1491.03 410.535C1488.67 410.198 1486.76 409.749 1485.3 409.187L1485.8 423.173V438.506L1501.47 440.528V450.133H1451.43V440.528L1462.38 438.506V331.677L1451.43 328.644V317.018L1479.23 313.479H1479.57L1483.78 316.849V326.285C1486.59 322.803 1490.41 319.77 1495.24 317.186C1500.07 314.603 1505.35 313.311 1511.08 313.311C1521.75 313.311 1530.51 317.13 1537.36 324.769C1544.22 332.295 1547.64 343.865 1547.64 359.48ZM1502.32 327.296C1498.95 327.296 1495.74 328.026 1492.71 329.487C1489.68 330.947 1487.37 332.576 1485.8 334.373V396.887C1486.59 398.01 1488.16 398.965 1490.52 399.751C1492.99 400.538 1495.69 400.931 1498.61 400.931C1505.91 400.931 1511.69 397.785 1515.96 391.495C1520.34 385.092 1522.54 375.094 1522.54 361.502C1522.54 350.044 1520.68 341.506 1516.97 335.89C1513.27 330.161 1508.38 327.296 1502.32 327.296Z" fill="black"/>
<path id="ARTIST" d="M918.039 509.017H948.369L986.113 621.912L995.38 623.597V634.718H942.303V623.597L954.266 621.912L948.537 601.692H908.266L902.537 622.08L915.68 623.597V634.718H870.859L870.69 623.597L880.463 621.743L918.039 509.017ZM930.508 538.336L927.98 526.541L925.284 538.504L911.636 588.717H944.999L930.508 538.336ZM998.756 623.597L1011.73 621.912V523.508L999.43 521.149V509.522H1025.38C1027.51 509.522 1029.82 509.466 1032.29 509.354C1034.87 509.241 1036.84 509.129 1038.18 509.017C1044.25 508.567 1049.42 508.343 1053.69 508.343C1065.71 508.343 1075.25 509.522 1082.33 511.881C1089.41 514.128 1094.52 517.722 1097.67 522.665C1100.92 527.495 1102.55 533.898 1102.55 541.874C1102.55 549.513 1100.53 556.646 1096.49 563.274C1092.44 569.901 1086.49 574.451 1078.62 576.922C1083.79 578.832 1088.12 582.426 1091.6 587.706C1095.19 592.873 1098.9 599.501 1102.72 607.589C1104.97 612.307 1106.76 615.846 1108.11 618.205C1109.46 620.451 1110.86 621.743 1112.32 622.08L1117.21 623.597V634.718H1085.2C1083.51 634.718 1081.77 632.92 1079.97 629.326C1078.18 625.731 1075.87 620.114 1073.06 612.476C1069.58 603.152 1066.55 595.963 1063.97 590.908C1061.49 585.74 1058.74 582.595 1055.71 581.472H1040.54V621.912L1055.54 623.597V634.718H998.756V623.597ZM1053.52 570.519C1059.36 570.519 1063.91 568.272 1067.17 563.779C1070.42 559.173 1072.05 552.265 1072.05 543.054C1072.05 534.966 1070.42 529.068 1067.17 525.361C1064.02 521.542 1058.69 519.632 1051.16 519.632C1047.12 519.632 1043.58 519.913 1040.54 520.475V570.014C1042 570.351 1044.42 570.519 1047.79 570.519C1051.16 570.519 1053.07 570.519 1053.52 570.519ZM1162.95 521.991L1141.89 522.834L1134.81 560.409H1118.97L1121.67 509.522H1232.71L1234.9 560.409H1219.9L1212.49 522.834L1192.1 521.991V621.743L1215.52 623.597V634.718H1141.55V623.597L1162.95 621.743V521.991ZM1258.93 523.676L1245.11 521.317V509.522H1301.9V521.317L1287.74 523.676V621.912L1301.9 623.765V634.718H1245.28V623.597L1258.93 621.743V523.676ZM1359.35 636.571C1353.18 636.571 1347.45 636.066 1342.17 635.055C1337 634.044 1331.55 632.696 1325.82 631.011C1322.12 629.887 1319.42 629.269 1317.73 629.157L1319.25 597.648H1334.92L1339.13 619.216C1340.37 620.676 1342.62 621.968 1345.87 623.091C1349.24 624.214 1353.23 624.776 1357.84 624.776C1364.69 624.776 1369.8 623.26 1373.17 620.227C1376.65 617.194 1378.39 613.037 1378.39 607.758C1378.39 604.051 1377.27 600.849 1375.02 598.153C1372.89 595.345 1369.86 592.817 1365.93 590.571C1362.11 588.212 1356.83 585.516 1350.09 582.483C1341.21 578.439 1333.69 573.327 1327.51 567.149C1321.44 560.858 1318.41 552.602 1318.41 542.38C1318.41 536.089 1320.04 530.36 1323.29 525.193C1326.55 520.025 1331.49 515.869 1338.12 512.724C1344.75 509.578 1353.01 508.006 1362.89 508.006C1368.85 508.006 1374.01 508.399 1378.39 509.185C1382.89 509.971 1387.66 511.039 1392.72 512.387C1395.41 513.285 1397.49 513.791 1398.95 513.903L1397.94 543.896H1382.61L1378.73 523.171C1377.94 522.16 1376.15 521.261 1373.34 520.475C1370.64 519.576 1367.61 519.127 1364.24 519.127C1358.06 519.127 1353.4 520.587 1350.25 523.508C1347.22 526.428 1345.71 530.191 1345.71 534.797C1345.71 538.841 1347 542.38 1349.58 545.413C1352.16 548.446 1355.25 551.029 1358.85 553.164C1362.56 555.186 1368.17 558.05 1375.7 561.757C1381.65 564.678 1386.82 567.655 1391.2 570.688C1395.69 573.608 1399.51 577.428 1402.66 582.146C1405.8 586.864 1407.38 592.368 1407.38 598.659C1407.38 604.837 1405.86 610.791 1402.83 616.52C1399.91 622.249 1394.85 627.023 1387.66 630.842C1380.47 634.661 1371.04 636.571 1359.35 636.571ZM1457.99 521.991L1436.93 522.834L1429.85 560.409H1414.01L1416.71 509.522H1527.75L1529.94 560.409H1514.94L1507.53 522.834L1487.14 521.991V621.743L1510.56 623.597V634.718H1436.59V623.597L1457.99 621.743V521.991Z" fill="#BB247A"/>
</g>
<g id="Group_3">
<path id="Vector" d="M617.071 652.389C739.692 532.288 739.692 337.565 617.072 217.463C494.451 97.3615 295.644 97.3615 173.024 217.463C50.4034 337.565 50.4035 532.288 173.024 652.389C295.644 772.491 494.451 772.491 617.071 652.389Z" fill="#BB247A"/>
<path id="Vector_2" d="M384.293 601.077C383.718 609.186 383.131 616.731 382.974 629.064C383.226 619.653 383.634 610.242 384.293 601.077Z" fill="white"/>
<path id="Vector_3" d="M466.205 336.082C455.425 332.237 444.403 329.234 433.141 327.081C428.923 327.891 397.104 339.168 397.104 339.168C383.55 339.649 392.97 331.059 392.97 331.059C405.373 324.231 418.121 318.121 431.236 312.729C438.259 311.191 472.558 320.838 470.664 322.949C468.717 327.204 467.147 331.581 465.954 336.092H466.205V336.082ZM441.41 392.374C437.725 392.21 434.083 391.748 430.482 390.979C426.882 390.211 423.376 389.155 419.953 387.812C416.53 386.469 413.254 384.849 410.114 382.963C406.974 381.076 404.012 378.944 401.239 376.555L421.575 371.85C421.575 371.85 436.208 383.127 446.371 382.553C454.891 381.292 462.908 378.585 470.423 374.444C469.816 375.807 469.104 377.129 468.298 378.39C467.493 379.651 466.592 380.851 465.598 381.978C464.604 383.106 463.536 384.162 462.385 385.136C461.233 386.11 460.019 386.992 458.732 387.791C457.445 388.591 456.105 389.278 454.713 389.883C453.321 390.477 451.887 390.969 450.421 391.359C448.956 391.748 447.47 392.025 445.952 392.199C444.445 392.374 442.927 392.425 441.41 392.374ZM493.063 377.611C487.526 359.599 476.536 338.03 482.648 302.744C485.129 287.489 466.121 247.098 445.952 212.867C428.557 224.903 409.821 234.396 389.746 241.336C338.753 259.42 351.648 358.143 285.446 370.394C271.473 372.906 260.651 364.879 249.985 371.778C236.18 380.861 230.475 421.499 244.448 436.671C247.818 439.962 251.555 442.791 255.658 445.149C259.761 447.507 264.094 449.332 268.668 450.624C269.851 451.003 271.002 451.464 272.112 452.028C273.221 452.592 274.268 453.227 275.273 453.955C276.277 454.683 277.209 455.483 278.067 456.364C278.936 457.246 279.721 458.189 280.433 459.194C281.144 460.199 281.762 461.254 282.296 462.362C282.829 463.469 283.269 464.607 283.604 465.786C283.939 466.965 284.19 468.154 284.337 469.374C284.483 470.583 284.525 471.803 284.462 473.023C284.462 479.431 285.205 491.599 286.367 507.582C287.602 525.02 288.764 546.917 288.188 570.855C288.157 591.256 286.126 611.451 282.076 631.463C278.025 651.474 272.049 670.901 264.136 689.764C274.09 694.684 284.295 699.021 294.751 702.783C305.207 706.546 315.852 709.703 326.685 712.266C337.518 714.829 348.466 716.766 359.519 718.089C370.582 719.411 381.676 720.109 392.813 720.18C384.785 690.748 381.499 660.823 382.974 630.386C345.535 619.519 317.348 580.42 317.348 580.42C317.348 580.42 332.138 592.014 384.712 594.372C428.274 597.458 479.759 593.234 497.113 582.449C516.78 570.281 503.142 544.898 502.242 530.535C501.331 516.183 510.51 518.941 514.059 517.967C505.654 516.347 497.553 513.784 489.755 510.288C481.957 506.792 474.694 502.456 467.932 497.279C491.65 483.08 494.298 477.247 515.043 476.437C514.341 474.93 513.431 473.546 512.311 472.295C509.443 468.441 507.098 464.299 505.246 459.881C503.404 455.462 502.116 450.9 501.394 446.174C501.394 439.039 527.425 443.581 532.637 427.27C537.839 410.97 499.824 399.693 493.052 377.632L493.063 377.611Z" fill="white"/>
<path id="Vector_4" d="M395.126 148.374C384.764 148.374 374.434 148.918 364.134 149.994C360.073 150.425 356.012 150.937 351.972 151.532C347.932 152.126 343.902 152.803 339.883 153.572C335.864 154.33 331.876 155.181 327.899 156.104C323.921 157.027 319.965 158.042 316.03 159.128C312.094 160.215 308.18 161.394 304.297 162.644C300.413 163.895 296.551 165.228 292.731 166.643C288.9 168.057 285.111 169.544 281.343 171.112C277.575 172.681 273.849 174.321 270.154 176.043C266.46 177.766 262.807 179.56 259.196 181.436C255.585 183.312 252.005 185.26 248.478 187.279C244.951 189.299 241.455 191.39 238.011 193.563C234.568 195.727 231.176 197.961 227.827 200.268C224.478 202.575 221.181 204.943 217.936 207.393C214.692 209.833 211.499 212.344 208.359 214.918C205.219 217.491 202.142 220.125 199.117 222.832C196.092 225.528 193.13 228.296 190.22 231.115C187.311 233.934 184.474 236.825 181.69 239.757C178.906 242.7 176.195 245.693 173.537 248.748C170.878 251.803 168.293 254.909 165.781 258.067C163.258 261.224 160.809 264.433 158.423 267.703C156.036 270.963 153.734 274.275 151.483 277.627C149.244 280.979 147.077 284.383 144.984 287.827C142.89 291.272 140.87 294.757 138.923 298.294C136.977 301.821 135.114 305.388 133.324 308.997C131.534 312.606 129.817 316.245 128.185 319.925C126.552 323.606 124.992 327.317 123.516 331.059C122.041 334.8 120.649 338.573 119.33 342.376C118.011 346.18 116.786 350.004 115.635 353.848C114.484 357.692 113.416 361.567 112.432 365.463C111.448 369.359 110.548 373.275 109.732 377.201C108.916 381.138 108.183 385.085 107.534 389.042C106.885 392.999 106.32 396.977 105.849 400.965C104.499 412.067 103.787 423.2 103.703 434.385C103.703 440.966 103.954 447.538 104.415 454.099C104.886 460.66 105.587 467.2 106.508 473.72C107.44 480.241 108.591 486.72 109.983 493.158C111.365 499.596 112.977 505.982 114.808 512.308C116.64 518.633 118.691 524.897 120.963 531.089C123.234 537.281 125.725 543.391 128.425 549.408C131.126 555.426 134.035 561.352 137.155 567.185C140.274 573.008 143.592 578.728 147.108 584.326C150.625 589.923 154.341 595.408 158.245 600.749C162.149 606.1 166.231 611.308 170.501 616.382C174.772 621.457 179.21 626.378 183.825 631.155C188.441 635.932 193.214 640.535 198.154 644.985C203.094 649.434 208.181 653.709 213.425 657.82C218.669 661.92 224.038 665.847 229.554 669.588C235.07 673.33 240.712 676.877 246.479 680.24C252.246 683.602 258.118 686.76 264.105 689.723C272.017 670.86 277.994 651.422 282.044 631.422C286.095 611.41 288.126 591.215 288.157 570.814C288.733 546.476 287.581 524.989 286.336 507.541C285.174 491.323 284.106 479.39 284.431 472.982C284.494 471.762 284.452 470.542 284.305 469.333C284.159 468.123 283.918 466.924 283.573 465.745C283.227 464.566 282.788 463.428 282.264 462.321C281.73 461.213 281.113 460.158 280.401 459.153C279.689 458.148 278.904 457.205 278.036 456.323C277.167 455.442 276.235 454.642 275.241 453.914C274.247 453.186 273.19 452.541 272.08 451.987C270.971 451.433 269.83 450.962 268.637 450.582C264.063 449.291 259.719 447.456 255.616 445.077C251.513 442.699 247.777 439.859 244.417 436.548C230.444 421.54 236.148 380.902 249.954 371.655C260.368 364.756 271.442 372.793 285.415 370.271C351.532 358.02 338.721 259.307 389.715 241.213C409.79 234.263 428.525 224.78 445.921 212.744C455.226 206.317 463.735 198.997 471.449 190.796C479.163 182.594 485.924 173.686 491.712 164.069C476.18 158.79 460.302 154.823 444.079 152.178C427.855 149.533 411.527 148.251 395.084 148.333L395.126 148.374Z" fill="#292359"/>
<path id="Vector_5" d="M421.575 371.85L401.239 376.555C404.012 378.934 406.974 381.066 410.114 382.963C413.254 384.849 416.541 386.469 419.953 387.812C423.375 389.155 426.882 390.211 430.482 390.979C434.083 391.748 437.725 392.21 441.41 392.374C442.927 392.445 444.445 392.404 445.963 392.251C447.48 392.097 448.966 391.841 450.442 391.471C451.918 391.102 453.352 390.621 454.755 390.046C456.157 389.462 457.507 388.786 458.805 388.006C460.103 387.227 461.338 386.356 462.5 385.392C463.662 384.429 464.75 383.393 465.755 382.265C466.76 381.148 467.681 379.959 468.497 378.698C469.324 377.447 470.046 376.135 470.674 374.771C463.159 378.923 455.142 381.62 446.622 382.881C436.459 383.127 421.575 371.85 421.575 371.85Z" fill="#292359"/>
<path id="Vector_6" d="M396.529 339.157C396.529 339.157 428.347 327.881 432.565 327.071C443.828 329.224 454.849 332.227 465.63 336.072C466.812 331.51 468.382 327.071 470.34 322.765C471.826 320.735 437.945 311.006 430.912 312.544C417.598 317.947 404.651 324.087 392.07 330.956C392.07 330.956 382.974 339.639 396.529 339.147V339.157Z" fill="#292359"/>
<path id="Vector_7" d="M514.142 517.854C519.93 515.906 522.411 502.763 511.494 495.464C512.143 494.88 512.75 494.244 513.295 493.557C513.839 492.87 514.32 492.143 514.749 491.384C515.168 490.615 515.524 489.826 515.817 489.006C516.1 488.186 516.319 487.345 516.466 486.484C516.613 485.623 516.686 484.761 516.686 483.89C516.686 483.019 516.613 482.158 516.466 481.296C516.319 480.435 516.1 479.595 515.807 478.775C515.514 477.954 515.158 477.165 514.729 476.396C493.565 477.206 491.336 483.049 467.702 497.166C474.505 502.364 481.832 506.71 489.682 510.206C497.532 513.702 505.685 516.244 514.153 517.844L514.142 517.854Z" fill="#292359"/>
<path id="Vector_8" d="M384.46 597.837V601.087C384.294 600.031 384.377 598.893 384.46 597.837Z" fill="#BB247A"/>
<path id="Vector_9" d="M317.349 580.399C317.349 580.399 345.284 619.581 382.974 630.53V629.074C382.974 616.741 383.718 608.96 384.293 601.087V594.269C332.054 591.922 317.349 580.399 317.349 580.399Z" fill="#BB247A"/>
</g>
</g>
</g>
</svg>
